<svg width="16" height="12" viewBox="0 0 16 12" fill="none" xmlns="http://www.w3.org/2000/svg">
<path d="M9.81375 11.92L9.45375 11.36C11.9338 9.73333 13.1738 8.10667 13.1738 6.48C13.1738 5.62667 12.8138 5.14667 12.0938 5.04L10.4138 6.6C9.88042 6.41333 9.38708 6.08 8.93375 5.6C8.50708 5.09333 8.29375 4.45333 8.29375 3.68C8.29375 2.90667 8.60042 2.25333 9.21375 1.72C9.82708 1.16 10.6271 0.879998 11.6138 0.879998C12.6271 0.879998 13.4538 1.22667 14.0938 1.92C14.7604 2.58667 15.0938 3.52 15.0938 4.72C15.0938 7.33333 13.3338 9.73333 9.81375 11.92ZM2.41375 11.92L2.05375 11.36C4.53375 9.73333 5.77375 8.10667 5.77375 6.48C5.77375 5.62667 5.41375 5.14667 4.69375 5.04L3.01375 6.6C2.48042 6.41333 1.98708 6.08 1.53375 5.6C1.10708 5.09333 0.89375 4.45333 0.89375 3.68C0.89375 2.90667 1.20042 2.25333 1.81375 1.72C2.42708 1.16 3.22708 0.879998 4.21375 0.879998C5.22708 0.879998 6.05375 1.22667 6.69375 1.92C7.36042 2.58667 7.69375 3.52 7.69375 4.72C7.69375 7.33333 5.93375 9.73333 2.41375 11.92Z" fill="gray"/>
</svg>
