<svg width="16" height="12" viewBox="0 0 16 12" fill="none" xmlns="http://www.w3.org/2000/svg">
<path d="M13.6352 0.799998L13.9952 1.36C11.5152 2.98667 10.2752 4.61333 10.2752 6.24C10.2752 7.06667 10.6352 7.54667 11.3552 7.68L13.0352 6.12C13.5685 6.30667 14.0485 6.65333 14.4752 7.16C14.9285 7.64 15.1552 8.26667 15.1552 9.04C15.1552 9.81333 14.8485 10.48 14.2352 11.04C13.6218 11.5733 12.8085 11.84 11.7952 11.84C10.8085 11.84 9.98182 11.5067 9.31516 10.84C8.67516 10.1467 8.35516 9.2 8.35516 8C8.35516 5.38667 10.1152 2.98666 13.6352 0.799998ZM6.11516 0.799998L6.47516 1.36C3.99516 2.98667 2.75516 4.61333 2.75516 6.24C2.75516 7.06667 3.11516 7.54667 3.83516 7.68L5.51516 6.12C6.04849 6.30667 6.52849 6.65333 6.95516 7.16C7.40849 7.64 7.63516 8.26667 7.63516 9.04C7.63516 9.81333 7.32849 10.48 6.71516 11.04C6.10182 11.5733 5.28849 11.84 4.27516 11.84C3.28849 11.84 2.46182 11.5067 1.79516 10.84C1.15516 10.1467 0.835156 9.2 0.835156 8C0.835156 5.38667 2.59516 2.98666 6.11516 0.799998Z" fill="gray"/>
</svg>
